<svg xmlns="http://www.w3.org/2000/svg" xmlns:xlink="http://www.w3.org/1999/xlink" style="display:none">
  <symbol id="bars" viewBox="0 0 24 24" fill="currentColor"><path d="M3 6h18v2H3V6zm0 5h18v2H3v-2zm0 5h18v2H3v-2z"/></symbol>
  <symbol id="xmark" viewBox="0 0 24 24" fill="currentColor"><path d="M18.3 5.71 12 12l6.3 6.29-1.41 1.42L10.59 13.4 4.29 19.7 2.88 18.3 9.17 12 2.88 5.71 4.29 4.3l6.3 6.29 6.3-6.29 1.41 1.42z"/></symbol>
  <symbol id="magnifying-glass" viewBox="0 0 24 24" fill="currentColor"><path d="M10 2a8 8 0 1 1-4.9 14.32l-4.2 4.2 1.4 1.4 4.24-4.24A8 8 0 0 1 10 2zm0 2a6 6 0 1 0 0 12 6 6 0 0 0 0-12z"/></symbol>
  <symbol id="plus" viewBox="0 0 24 24" fill="currentColor"><path d="M11 5h2v6h6v2h-6v6h-2v-6H5v-2h6V5z"/></symbol>
  <symbol id="chevron-down" viewBox="0 0 24 24" fill="currentColor"><path d="M7 10l5 5 5-5H7z"/></symbol>
  <symbol id="chevron-right" viewBox="0 0 24 24" fill="currentColor"><path d="M10 6L8.59 7.41 13.17 12l-4.58 4.59L10 18l6-6-6-6z"/></symbol>
  <symbol id="ellipsis-vertical" viewBox="0 0 24 24" fill="currentColor"><path d="M12 8a2 2 0 1 0 .001-4.001A2 2 0 0 0 12 8zm0 2a2 2 0 1 0-.001 4.001A2 2 0 0 0 12 10zm0 6a2 2 0 1 0-.001 4.001A2 2 0 0 0 12 16z"/></symbol>
  <symbol id="pen" viewBox="0 0 24 24" fill="currentColor"><path d="M3 17.25V21h3.75L17.81 9.94l-3.75-3.75L3 17.25zm2.92 2.83H5v-.92l8.06-8.06.92.92L5.92 20.08zM20.71 7.04a1 1 0 0 0 0-1.41l-2.34-2.34a1 1 0 0 0-1.41 0l-1.83 1.83 3.75 3.75 1.83-1.83z"/></symbol>
  <symbol id="arrow-right-arrow-left" viewBox="0 0 24 24" fill="currentColor"><path d="M6.99 11L3 15l3.99 4v-3H15v-2H6.99v-3zM21 9l-3.99-4v3H10v2h7.01v3L21 9z"/></symbol>
  <symbol id="trash" viewBox="0 0 24 24" fill="currentColor"><path d="M6 19a2 2 0 0 0 2 2h8a2 2 0 0 0 2-2V7H6v12zM19 4h-3.5l-1-1h-5l-1 1H5v2h14V4z"/></symbol>
  <symbol id="arrow-left" viewBox="0 0 24 24" fill="currentColor"><path d="M20 11H7.83l5.59-5.59L12 4l-8 8 8 8 1.41-1.41L7.83 13H20v-2z"/></symbol>
  <symbol id="comments" viewBox="0 0 24 24" fill="currentColor"><path d="M20 2H4a2 2 0 0 0-2 2v18l4-4h14a2 2 0 0 0 2-2V4a2 2 0 0 0-2-2zm0 14H5.17L4 17.17V4h16v12z"/></symbol>
  <symbol id="list" viewBox="0 0 24 24" fill="currentColor"><path d="M3 13h2v-2H3v2zm0 4h2v-2H3v2zm0-8h2V7H3v2zm4 4h14v-2H7v2zm0 4h14v-2H7v2zM7 7v2h14V7H7z"/></symbol>
  <symbol id="note-sticky" viewBox="0 0 24 24" fill="currentColor"><path d="M19 3H5a2 2 0 0 0-2 2v14l4-4h12a2 2 0 0 0 2-2V5a2 2 0 0 0-2-2zm0 10h-4v4H5V5h14v8z"/></symbol>
  <symbol id="file-lines" viewBox="0 0 24 24" fill="currentColor"><path d="M14 2H6a2 2 0 0 0-2 2v16a2 2 0 0 0 2 2h12a2 2 0 0 0 2-2V8l-6-6zm4 18H6V4h7v5h5v11zM8 12h8v2H8v-2zm0 4h8v2H8v-2zm0-8h5v2H8V8z"/></symbol>
  <symbol id="folder" viewBox="0 0 24 24" fill="currentColor"><path d="M10 4H4a2 2 0 0 0-2 2v12a2 2 0 0 0 2 2h16a2 2 0 0 0 2-2V8a2 2 0 0 0-2-2h-8l-2-2z"/></symbol>
  <symbol id="folder-open" viewBox="0 0 24 24" fill="currentColor"><path d="M20 6h-8l-2-2H4a2 2 0 0 0-2 2v12h18l-2-10zM4 18V8h16.2l1.6 8H4z"/></symbol>
  <symbol id="user" viewBox="0 0 24 24" fill="currentColor"><path d="M12 12a4 4 0 1 0-4-4 4 4 0 0 0 4 4zm0 2c-4 0-8 2-8 4v2h16v-2c0-2-4-4-8-4z"/></symbol>
  <symbol id="users" viewBox="0 0 24 24" fill="currentColor"><path d="M16 11a3 3 0 1 0-3-3 3 3 0 0 0 3 3zm-8 0a3 3 0 1 0-3-3 3 3 0 0 0 3 3zm0 2c-2.67 0-8 1.34-8 4v3h8v-3c0-.2.04-.39.09-.57A7.65 7.65 0 0 1 8 15zm8 0c-.67 0-2.1.17-3.51.5 1.39.94 2.51 2.35 2.51 4.5v3H24v-3c0-2.66-5.33-4-8-4z"/></symbol>
  <symbol id="people-roof" viewBox="0 0 24 24" fill="currentColor"><path d="M12 3 1 9h2v9h6v-6h6v6h6V9h2L12 3zm-6 8H5V9.83L12 6l7 3.83V11h-1v6h-2v-8H7v8H6v-6z"/></symbol>
  <symbol id="bell" viewBox="0 0 24 24" fill="currentColor"><path d="M12 22a2 2 0 0 0 2-2h-4a2 2 0 0 0 2 2zm6-6V11a6 6 0 1 0-12 0v5l-2 2v1h16v-1l-2-2z"/></symbol>
  <symbol id="gear" viewBox="0 0 24 24" fill="currentColor"><path d="M19.14 12.94c.04-.31.06-.63.06-.94s-.02-.63-.06-.94l2.03-1.58a.5.5 0 0 0 .12-.64l-1.92-3.32a.5.5 0 0 0-.6-.22l-2.39.96a7.07 7.07 0 0 0-1.63-.94l-.36-2.54A.5.5 0 0 0 14 2h-4a.5.5 0 0 0-.49.42l-.36 2.54c-.57.22-1.1.5-1.63.94l-2.39-.96a.5.5 0 0 0-.6.22L2.01 8.12a.5.5 0 0 0 .12.64l2.03 1.58c-.04.31-.06.63-.06.94s.02.63.06.94l-2.03 1.58a.5.5 0 0 0-.12.64l1.92 3.32c.14.24.44.34.7.22l2.39-.96c.5.44 1.06.8 1.63.94l.36 2.54c.05.24.27.42.49.42h4c.24 0 .44-.18.49-.42l.36-2.54c.57-.14 1.13-.5 1.63-.94l2.39.96c.26.12.56.02.7-.22l1.92-3.32a.5.5 0 0 0-.12-.64l-2.03-1.58zM12 15.5A3.5 3.5 0 1 1 12 8a3.5 3.5 0 0 1 0 7.5z"/></symbol>
  <symbol id="gauge-high" viewBox="0 0 24 24" fill="currentColor"><path d="M12 2C6.48 2 2 6.48 2 12s4.48 10 10 10 10-4.48 10-10S17.52 2 12 2zm1 17.93c-3.95-.49-7-3.85-7-7.93 0-.62.08-1.21.21-1.79L9 15v1c0 1.1.9 2 2 2v1.93zm6.9-2.54c-.26-.81-1-1.39-1.9-1.39h-1v-3c0-.55-.45-1-1-1H8v-2h2c.55 0 1-.45 1-1V7h2c1.1 0 2-.9 2-2v-.41c2.93 1.19 5 4.06 5 7.41 0 2.08-.8 3.97-2.1 5.39z"/></symbol>
  <symbol id="plug" viewBox="0 0 24 24" fill="currentColor"><path d="M16 7h1v2h-4V7h1V3h2v4zm-8 4h2v7a2 2 0 0 0 2 2h4v2h-4a4 4 0 0 1-4-4v-7zm8-2V5h2v4h-2zm-8 2V5h2v4H8z"/></symbol>
  <symbol id="store" viewBox="0 0 24 24" fill="currentColor"><path d="M20 4H4v2h16V4zm1 4H3l-1 8v2h2v4h14v-4h2v-2l-1-8zm-7 12H8v-4h6v4z"/></symbol>
  <symbol id="map-location-dot" viewBox="0 0 24 24" fill="currentColor"><path d="M12 2C8.13 2 5 5.13 5 9c0 5.25 7 13 7 13s7-7.75 7-13c0-3.87-3.13-7-7-7zm0 9.5A2.5 2.5 0 1 1 12 6a2.5 2.5 0 0 1 0 5.5z"/></symbol>
  <symbol id="eye" viewBox="0 0 24 24" fill="currentColor"><path d="M12 4.5C7 4.5 2.73 7.61 1 12c1.73 4.39 6 7.5 11 7.5s9.27-3.11 11-7.5c-1.73-4.39-6-7.5-11-7.5zM12 17a5 5 0 1 1 0-10 5 5 0 0 1 0 10zm0-8a3 3 0 1 0 .01 6.01A3 3 0 0 0 12 9z"/></symbol>
  <symbol id="eye-slash" viewBox="0 0 24 24" fill="currentColor"><path d="M12 7a5 5 0 0 1 4.9 4l1.77-1.77A9.96 9.96 0 0 0 12 5c-5 0-9.27 3.11-11 7.5.36.91.84 1.75 1.4 2.5L3.5 16.5 18 2l1.41 1.41L5.41 17H2v2h4.59L12 13.59 15.41 17H20v-2h-2.59L9.59 7H12V7zm0 10a4.98 4.98 0 0 1-4.9-4L3.33 16.77A9.96 9.96 0 0 0 12 19c5 0 9.27-3.11 11-7.5-.36-.91-.84-1.75-1.4-2.5L18 9.59 12 15.41V17z"/></symbol>
</svg>
